<svg xmlns="http://www.w3.org/2000/svg" viewBox="0 0 500 500"><defs><style>.cls-1{isolation:isolate;}.cls-2{fill:#fff;}.cls-3,.cls-4{fill:#f6a160;}.cls-3{opacity:0.5;}.cls-5{fill:none;stroke:#723d39;stroke-linecap:round;stroke-miterlimit:10;stroke-width:1.5px;}.cls-6{fill:#e08443;}.cls-7{fill:#d37140;}.cls-14,.cls-8{fill:#2e2044;}.cls-13,.cls-9{fill:#8d3646;}.cls-10,.cls-12{fill:#de8370;}.cls-11,.cls-15{fill:#8b6562;}.cls-12,.cls-13,.cls-14,.cls-15{opacity:0.6;mix-blend-mode:multiply;}</style></defs><title>2926835</title><g class="cls-1"><g id="BACKGROUND"><rect class="cls-2" width="500" height="500"/></g><g id="OBJECTS"><g id="_01" data-name="01"><path class="cls-3" d="M183.85,222.78c-5.75-5.53-3.76-15.06,3.54-16.66,10-2.21,6.76-3.59,6.76-11.78s22-11.78,25.8,1.77,12.29,7.57,16.39,16.71c2.33,5.19-.22,9-2.86,11.24,24.29,1.39,40.32,3.78,40.32,6.5,0,4.29-40.07,7.77-89.5,7.77s-89.5-3.48-89.5-7.77S134.63,222.8,183.85,222.78Z"/><path class="cls-3" d="M112.39,241.69c0,1.86-10.65,3.37-23.78,3.37s-23.78-1.51-23.78-3.37,10.65-3.36,23.78-3.36S112.39,239.84,112.39,241.69Z"/><path class="cls-4" d="M132.15,227.56h56.5s17.5-7.5,11-22-20-5-26-26.5-40.93-15.83-40.93-2.83,5.2,15.2-10.73,18.7S106.06,225.79,132.15,227.56Z"/><line class="cls-5" x1="153.8" y1="227.56" x2="153.8" y2="187.06"/><line class="cls-5" x1="161.99" y1="193.06" x2="153.8" y2="204.72"/><line class="cls-5" x1="147.99" y1="207.31" x2="153.8" y2="215.06"/><line class="cls-5" x1="150.89" y1="190.62" x2="153.8" y2="196.74"/><path class="cls-6" d="M118.2,167.06s-35.36,6-36.36-43.25,36.5-48.25,48.5-41.75,27.5,23,22.5,52.75C148.45,160.93,131.31,168.28,118.2,167.06Z"/><line class="cls-5" x1="117.2" y1="105.06" x2="117.2" y2="230.56"/><line class="cls-5" x1="109.34" y1="105.06" x2="117.2" y2="123.81"/><line class="cls-5" x1="129.34" y1="114.43" x2="117.2" y2="137.06"/><line class="cls-5" x1="109.34" y1="134.81" x2="117.2" y2="151.06"/><ellipse class="cls-3" cx="367.61" cy="217.06" rx="53.75" ry="5.5"/><path class="cls-3" d="M433.05,202.72c0,1.87-11.5,3.39-25.69,3.39s-25.69-1.52-25.69-3.39,11.5-3.38,25.69-3.38S433.05,200.85,433.05,202.72Z"/><path class="cls-6" d="M390.36,174.56s23,0,23-21.5-14.5-27.5-11.5-43.25-9-31.25-25.5-21.75-3.71,42.08-9.5,52S359.36,176.06,390.36,174.56Z"/><line class="cls-5" x1="390.36" y1="216.56" x2="390.36" y2="141.31"/><path class="cls-7" d="M390.36,118.06c-4.67-12-18-10-11-28,.49-1.27.95-2.61,1.39-4a23.41,23.41,0,0,0-4.39,2c-16.5,9.5-3.71,42.08-9.5,52-4.79,8.21-6.77,27.49,10.29,33,.25-.49.5-1,.71-1.53,5-12.5-7.67-20,2.83-26.5S395.63,131.6,390.36,118.06Z"/><path class="cls-4" d="M354.36,184.06s16.5-2,21.5-14.5-7.67-20,2.83-26.5,14.94-13.46,9.67-27c-4.67-12-18-10-11-28s-.55-39.63-25.48-39.5c-20.48.1-27.52,7-29,29s-9,18-14,26.5-4.5,19,11.5,27.49,11,12.51,3,17.51S323,184.06,354.36,184.06Z"/><line class="cls-5" x1="353.36" y1="216.56" x2="353.36" y2="66.06"/><path class="cls-5" d="M363.86,72.06c0,1.5-10.5,23-10.5,23"/><line class="cls-5" x1="340.36" y1="83.56" x2="353.36" y2="104.06"/><line class="cls-5" x1="363.86" y1="100.06" x2="353.36" y2="119.56"/><line class="cls-5" x1="342.86" y1="113.56" x2="353.36" y2="128.06"/><line class="cls-5" x1="370.86" y1="128.06" x2="353.36" y2="158.06"/><line class="cls-5" x1="340.36" y1="143.06" x2="353.36" y2="163.06"/><path class="cls-8" d="M261.23,155.73s-1.25,44.33-5.17,63.83c-6.16-.25-10.39,0-10.39,0s-1.27-39-.65-52c-3.12,27-6.87,52-6.87,52a28.89,28.89,0,0,1-10,0c-1.25-11.5-2-54.36,0-64.68,2.5-6.07,11.42-8.57,11.42-8.57l18.58,2.15Z"/><path class="cls-9" d="M239.57,104.72s-9,1.67-12.17,6.84-9,26-9.34,31,10.84,13.17,12.67,14c2.33-1.17,4.5-3.67,4.33-5.33,4.5-.5,21-.67,21-.67a10.6,10.6,0,0,0,5.17,5.17c4.33-2.5,9.33-10.67,8.33-17s-7.33-28-10-30.5-9.1-3.84-9.1-3.84S244.74,107.2,239.57,104.72Z"/><path class="cls-8" d="M236.82,90.33s-1,4,1.41,5.73,4,2.17,4,2.75c0-2.17.46-9.44.23-9.22S236.82,90.33,236.82,90.33Z"/><path class="cls-10" d="M252.9,90.73s2.83,8.16-5.17,8.83a21.51,21.51,0,0,1,0,4s-4.67,2.5-5.5-1.17V96.06s-4.67-2-.67-5.33Z"/><path class="cls-11" d="M252.23,86.89s.56-6.68-7.71-6.7c-7.91,0-8.32,8.14-7.7,10.14a34.76,34.76,0,0,0,5.33.44S248.19,87,252.23,86.89Z"/><path class="cls-11" d="M241.56,90.73s15.67,1.33,17-1-4.5-2.67-6.33-2.84S243.11,87.57,241.56,90.73Z"/><path class="cls-12" d="M247.73,99.56s-2.83-.5-4.17-2c.5,1.5,4.22,3.08,4.22,3.08Z"/><path class="cls-9" d="M242.23,102.39s-1.86-.11-2.66,2.33c.45,1.68,3,2.56,5.45,2.53,3.52,0,5.14-1.63,5.44-2.86.2-.84-1.92-2.29-2.68-1.4C247.73,103.56,243.81,104.85,242.23,102.39Z"/><path class="cls-13" d="M235.06,151.23s-3.16-8.17-3.33-10.17,2.67-18.17,2.67-18.17-1.68,17-1,19,3.22,9.21,3.22,9.21Z"/><path class="cls-13" d="M256.06,150.56s5.17-3.67,4-9.67-3.33-13.16-2.83-19.16c-.67,5.33-1.2,7.85,0,13.09S260.9,142.89,256.06,150.56Z"/><polygon class="cls-14" points="245.02 166.56 244.9 171.39 249.56 159.89 245.02 166.56"/><path class="cls-13" d="M252.24,107.25s-3.77,3.06-7.81,2.56C247.65,111.06,250.33,110.44,252.24,107.25Z"/><path class="cls-13" d="M252.24,128.08s-5,9.91-12.3,13.23C244.65,141.31,251.58,135.36,252.24,128.08Z"/><path class="cls-6" d="M253.39,105.17a4.2,4.2,0,0,1,2.67,1c-1.78,4.74-4.43,24.39-21.89,42.54a13.65,13.65,0,0,1-1.27-3.4S247.78,128.31,253.39,105.17Z"/><path class="cls-6" d="M223.7,151.23a12.94,12.94,0,0,0-5.31,10c-.33,6.83,1,6.33,1,6.33s-1.67,8.5.33,10.5,6.08,1.66,7.37-1.17S229,155.51,229,155.51,225,152.44,223.7,151.23Z"/><path class="cls-15" d="M219.4,167.56s4.66-.33,6.5-9.33c.16,3.83-1.17,9.74-6.5,10.7Z"/><path class="cls-10" d="M235.15,219.93v5.76l-4.75,1.62v-7.42S233.73,220,235.15,219.93Z"/><path class="cls-8" d="M235.15,225.69s-3.75.54-4.75,1.62a1.82,1.82,0,0,0,0,2.33s9.33.92,10.08,0S238,226.31,235.15,225.69Z"/><path class="cls-10" d="M253.48,219.48v6.21l-4.75,1.62v-7.83S251.44,219.35,253.48,219.48Z"/><path class="cls-8" d="M253.48,225.69s-3.75.54-4.75,1.62a1.82,1.82,0,0,0,0,2.33s9.33.92,10.08,0S256.31,226.31,253.48,225.69Z"/></g></g></g></svg>